<svg width="41" height="42" viewBox="0 0 41 42" fill="none" xmlns="http://www.w3.org/2000/svg">
<path d="M16 23H20M24 23H20M20 23V19M20 23V27" stroke="#898989" stroke-width="2.02054" stroke-linecap="round" stroke-linejoin="round"/>
<path d="M31 27.248C31 28.9049 29.6569 30.248 28 30.248H12C10.3431 30.248 9 28.9049 9 27.248V15.048V14.748C9 13.0912 10.3431 11.748 12 11.748H16.3596C17.3818 11.748 18.3336 12.2685 18.8853 13.129L19.2301 13.667C19.7818 14.5276 20.7336 15.048 21.7558 15.048H28C29.6569 15.048 31 16.3912 31 18.048V27.248Z" stroke="#898989" stroke-width="2" stroke-linejoin="round"/>
</svg>
